<svg version="1.1" id="Layer_1" xmlns="http://www.w3.org/2000/svg" xmlns:xlink="http://www.w3.org/1999/xlink" x="0px" y="0px"
	 width="100%" viewBox="0 0 500 500" enable-background="new 0 0 500 500" xml:space="preserve">
<path fill="#FFFFFF" opacity="1.000000" stroke="none" 
	d="
M457.000000,501.000000 
	C304.666718,501.000000 152.833405,501.000000 1.000082,501.000000 
	C1.000054,334.333405 1.000054,167.666824 1.000027,1.000171 
	C167.666550,1.000114 334.333099,1.000114 500.999756,1.000057 
	C500.999817,167.666519 500.999817,334.333038 500.999908,500.999756 
	C486.500000,501.000000 472.000000,501.000000 457.000000,501.000000 
M412.998779,286.000885 
	C412.998779,286.000885 413.003693,285.981018 413.310822,286.629181 
	C421.772369,291.917236 430.451843,291.115570 439.114227,287.328857 
	C440.848145,286.570923 442.391113,285.119873 443.694611,283.689880 
	C446.013641,281.145752 445.038757,279.932465 441.922302,279.222900 
	C441.426880,275.050659 439.007294,277.496033 437.234222,277.887054 
	C430.605438,279.348907 423.935852,281.149506 418.572662,274.541656 
	C418.456909,274.337250 418.282898,274.254517 417.902649,274.092773 
	C417.902649,274.092773 417.711761,273.932404 417.822754,273.125183 
	C416.812714,265.876282 416.812714,265.876007 424.390808,265.875336 
	C430.187866,265.874786 435.992798,265.692078 441.779236,265.940094 
	C445.561035,266.102203 446.602325,264.366852 446.854828,260.972595 
	C447.676361,249.929382 437.563965,236.236191 423.121765,237.986740 
	C411.631104,238.015686 405.119232,241.877594 401.500397,251.106781 
	C397.079285,262.382111 398.854187,276.709961 411.338989,285.518280 
	C411.898071,285.675903 412.457153,285.833527 412.998779,286.000885 
M127.998718,284.999634 
	C127.998718,284.999634 128.001007,284.979889 128.312912,285.606964 
	C135.099380,292.384094 154.641510,291.274719 160.174683,284.455200 
	C162.420135,281.687744 162.363022,280.251740 158.927292,278.306335 
	C157.216202,278.242462 155.330566,277.676331 153.823639,278.199982 
	C146.571045,280.720184 139.196228,279.211578 135.014145,273.127045 
	C135.014145,271.217346 135.014145,269.307648 135.014145,266.959808 
	C143.282272,266.959808 150.743744,267.110199 158.191345,266.855377 
	C160.081055,266.790710 163.439316,265.603546 163.544998,264.647308 
	C164.190918,258.802460 165.146790,252.637207 159.711685,247.331039 
	C154.714859,235.325134 132.272980,236.354767 124.441521,242.698959 
	C114.444000,250.797836 113.605576,276.106079 127.199524,284.447418 
	C127.472488,284.630951 127.745453,284.814484 127.998718,284.999634 
M326.740295,221.308426 
	C324.799774,217.077850 321.086823,215.258316 317.031860,216.457962 
	C314.498962,217.207336 311.732117,219.846146 310.694305,222.318726 
	C309.262726,225.729507 311.488953,228.566513 315.106171,230.737381 
	C316.587311,231.712357 317.950226,233.170685 319.572815,233.567520 
	C323.687012,234.573761 327.221283,233.095535 329.173218,229.334808 
	C330.622742,226.542068 330.785004,223.521683 326.740295,221.308426 
M235.004913,279.052399 
	C235.008347,265.029022 235.011780,251.005661 235.517487,237.353134 
	C236.002640,238.238068 236.487778,239.122986 237.055893,240.757401 
	C242.411652,254.804840 247.706894,268.876129 253.220016,282.861572 
	C253.750595,284.207489 255.635162,285.019684 256.972839,286.839966 
	C259.593872,290.146515 261.254303,290.013031 262.968353,285.906281 
	C265.825043,279.061646 268.296875,272.057281 271.097351,265.188049 
	C274.003265,258.060120 277.107025,251.012863 280.088409,244.875473 
	C280.078674,254.651031 279.928314,264.429474 280.130768,274.200653 
	C280.208130,277.933197 279.754608,280.655945 275.435303,281.453766 
	C274.515320,281.623688 273.856934,283.209930 273.078033,284.143646 
	C274.030334,284.781403 274.982635,285.419159 275.999512,286.881714 
	C276.905212,287.584595 277.797821,288.876709 278.718719,288.897247 
	C286.183838,289.063568 293.655090,289.043701 301.122009,288.924652 
	C302.037903,288.910065 302.939148,287.976105 303.847198,287.468231 
	C302.940796,286.611237 302.034393,285.754272 301.061249,284.195526 
	C299.681854,282.813141 298.302460,281.430786 296.970184,279.102386 
	C296.976196,264.656036 297.031372,250.209457 296.953125,235.763565 
	C296.933929,232.216934 296.514832,228.841064 301.428253,228.078461 
	C302.403442,227.927094 303.103760,226.004913 303.930817,224.899323 
	C302.981628,224.248047 302.032440,223.596756 301.012573,222.114090 
	C299.786224,221.411133 298.578583,220.143265 297.330292,220.101883 
	C291.560791,219.910522 285.779968,220.060242 279.251190,220.044540 
	C278.222626,221.336365 276.807831,222.475174 276.225922,223.943954 
	C271.061127,236.980728 266.043762,250.075912 260.707947,262.465759 
	C256.352234,250.808243 252.125275,239.100021 247.566681,227.522400 
	C246.091934,223.776917 244.456833,219.548462 238.066513,220.018356 
	C232.070160,220.014954 226.072556,219.949783 220.078735,220.071121 
	C219.120102,220.090515 217.900909,220.739929 217.340851,221.496719 
	C217.041458,221.901260 217.711929,223.300018 218.264511,223.996216 
	C219.178574,225.147858 220.175995,226.527527 221.449173,227.042450 
	C224.722794,228.366409 225.102921,230.752380 225.075455,233.843307 
	C224.955536,247.334137 224.934021,260.827667 225.091782,274.317749 
	C225.127823,277.398926 224.210037,279.116852 221.384842,280.496155 
	C219.610840,281.362244 218.446426,283.476837 216.486374,284.807068 
	C215.985107,284.544373 215.483841,284.281647 214.870132,283.338409 
	C209.240311,276.892670 203.610489,270.446960 198.274796,263.395447 
	C198.704895,262.899231 199.121567,262.390625 199.567184,261.908752 
	C204.482925,256.593048 207.385681,249.325790 214.749817,246.340454 
	C215.370773,246.088715 216.073074,244.333481 215.790466,243.912430 
	C215.206070,243.041733 213.983185,242.599564 212.970490,241.150101 
	C211.906509,240.433411 210.881332,239.178757 209.771454,239.098709 
	C206.124680,238.835709 202.443268,238.903442 198.783737,239.053329 
	C197.605804,239.101578 196.454376,239.797516 195.290817,240.197144 
	C195.697739,241.361542 196.129349,242.518051 196.504898,243.692490 
	C196.913620,244.970596 197.966995,246.628036 197.520538,247.485626 
	C196.115936,250.183777 194.139343,252.584137 191.898575,255.795837 
	C189.906662,252.698318 188.412384,250.374664 187.574402,247.735489 
	C188.685974,246.452789 189.797562,245.170105 190.909134,243.887421 
	C189.950027,243.249847 188.990921,242.612289 187.980087,241.142639 
	C187.253387,240.435532 186.539810,239.130463 185.797958,239.114182 
	C178.713501,238.958679 171.624237,239.021286 163.037430,239.021286 
	C164.535446,241.464279 165.189285,242.953079 166.209778,244.121719 
	C170.639343,249.194412 175.292557,254.076920 179.589172,259.256897 
	C180.629135,260.510681 181.592804,263.432404 180.937988,264.230560 
	C176.171616,270.040253 171.062408,275.578979 165.884140,281.034943 
	C164.036560,282.981628 162.440506,284.448273 166.056656,286.856262 
	C167.291214,287.571167 168.483597,288.796539 169.768417,288.902679 
	C173.242859,289.189636 176.765381,289.141907 180.250031,288.924927 
	C181.490036,288.847748 182.675919,287.901276 183.886490,287.351593 
	C182.967026,286.216980 182.047562,285.082336 181.080322,283.226654 
	C181.038879,282.505219 180.997452,281.783752 181.508087,280.662170 
	C183.681931,277.448578 185.855774,274.234955 188.578568,271.394012 
	C190.350922,273.942841 192.123276,276.491669 193.854553,278.981445 
	C189.265747,284.674011 189.265747,284.674011 193.045776,286.859619 
	C193.776932,287.565399 194.493164,288.864929 195.241623,288.883759 
	C201.712265,289.046509 208.192596,289.084534 214.658615,288.847595 
	C215.479492,288.817535 216.234451,286.988678 217.759460,285.991943 
	C218.498825,286.005951 219.238205,286.019958 220.027603,286.860779 
	C220.581116,287.545227 221.120102,288.810791 221.690353,288.825043 
	C228.075516,288.984467 234.466324,289.001953 240.852951,288.895782 
	C241.536438,288.884430 242.841629,287.690826 242.749710,287.321777 
	C242.531143,286.444122 241.647873,285.731995 240.979370,284.235352 
	C238.991852,282.819275 237.004333,281.403198 235.004913,279.052399 
M332.068939,284.207489 
	C330.993713,282.842163 329.918457,281.476868 328.945740,279.156158 
	C328.959076,267.892883 328.977051,256.629608 328.981567,245.366318 
	C328.982422,243.253906 329.491943,240.761902 325.954865,240.155609 
	C325.565399,239.485107 325.092041,238.195755 324.798889,238.235489 
	C318.967346,239.025955 313.150085,239.936035 307.374573,241.052917 
	C307.207550,241.085220 307.055481,244.518555 307.700653,244.863998 
	C310.866882,246.559219 312.177887,248.830795 312.075684,252.445145 
	C311.874329,259.566620 311.922607,266.699615 312.057068,273.824249 
	C312.122528,277.290619 312.183289,280.431091 307.933838,281.639587 
	C307.137970,281.865967 306.684479,283.296295 306.072998,284.171021 
	C307.034180,284.797272 307.995361,285.423523 309.018616,286.874298 
	C309.919769,287.579681 310.805939,288.873169 311.724518,288.896606 
	C318.524719,289.070190 325.332367,289.048126 332.134705,288.923431 
	C333.049805,288.906677 333.948120,287.972412 334.854187,287.462982 
	C333.949646,286.606689 333.045105,285.750397 332.068939,284.207489 
M471.989685,279.133209 
	C471.996124,273.836548 471.969147,268.539581 472.016998,263.243286 
	C472.085205,255.697144 474.763397,253.005753 482.140015,252.983124 
	C484.901306,252.974655 487.662689,252.981750 491.121277,252.981750 
	C490.184967,248.079010 491.006378,243.440262 485.908417,240.234604 
	C482.561676,236.704330 480.747345,237.153519 473.039032,243.257462 
	C470.843719,241.458649 468.735748,238.287460 466.574554,238.250809 
	C461.543396,238.165482 456.426392,239.335724 451.465942,240.511063 
	C449.027405,241.088852 447.646362,243.032425 450.686096,245.004944 
	C454.503815,247.482315 455.553558,250.873154 455.292572,255.322586 
	C454.923828,261.610199 455.068817,267.939362 455.251526,274.243286 
	C455.350067,277.643829 455.165924,280.475464 451.165253,281.576416 
	C450.343811,281.802460 449.846832,283.207672 449.200317,284.069366 
	C450.127533,284.739594 451.054718,285.409821 452.045654,286.894806 
	C452.952637,287.594025 453.846558,288.879364 454.768616,288.899872 
	C462.216156,289.065369 469.669830,289.045593 477.119110,288.926056 
	C478.032104,288.911377 478.930328,287.974457 479.835388,287.464905 
	C478.933929,286.617188 478.032440,285.769470 477.018250,284.198730 
	C475.327087,282.827759 473.635925,281.456787 471.989685,279.133209 
M108.019905,280.025330 
	C108.017174,260.942749 108.063683,241.859818 107.921867,222.778290 
	C107.910019,221.184982 106.629021,219.601120 105.910942,217.208588 
	C104.535416,216.483170 103.093735,215.042404 101.796402,215.162384 
	C97.373390,215.571457 92.952614,216.322815 88.623238,217.337234 
	C84.244072,218.363327 83.584320,220.488144 87.294113,223.039246 
	C91.999588,226.275055 92.129692,230.449020 92.057426,235.312363 
	C91.869820,247.939590 91.957970,260.571625 92.017082,273.201355 
	C92.034378,276.896545 92.564011,280.580505 87.413231,281.569824 
	C86.449326,281.754974 85.846054,283.817749 84.532669,284.808960 
	C84.018974,284.545837 83.505287,284.282745 82.878540,283.341949 
	C80.936668,282.212128 78.994797,281.082275 77.009491,279.186768 
	C70.994781,263.441315 65.043121,247.671280 58.915970,231.969711 
	C57.575771,228.535294 55.609749,225.345078 53.364216,221.584747 
	C49.743275,217.493958 45.199955,217.880417 43.329163,222.542465 
	C36.525158,239.498077 29.748640,256.464996 23.051363,273.462921 
	C21.675688,276.954437 20.416594,280.245270 16.160801,281.253754 
	C15.283208,281.461731 14.757032,283.152710 14.068880,284.160156 
	C15.040082,284.787048 16.011284,285.413910 17.026537,286.867218 
	C18.253429,287.577911 19.454979,288.844635 20.711658,288.901917 
	C25.839033,289.135651 30.986338,289.095398 36.119110,288.931244 
	C37.378929,288.890900 38.611572,288.000916 39.856701,287.501526 
	C38.927025,286.333038 37.997349,285.164581 36.971828,283.309052 
	C35.963272,282.523590 34.954716,281.738159 33.954929,280.154327 
	C34.528782,277.948822 35.219608,275.765961 35.651398,273.532990 
	C36.475170,269.272888 38.768425,267.511658 43.242161,267.902679 
	C47.479225,268.272949 51.777317,267.944946 56.585175,268.400146 
	C57.856819,271.902466 59.128464,275.404816 60.429604,278.988373 
	C58.190742,280.040253 56.466694,280.653717 54.977741,281.626923 
	C54.146629,282.170135 53.706192,283.311066 53.089710,284.182648 
	C54.057068,284.801208 55.024422,285.419800 56.033859,286.863190 
	C56.931374,287.572540 57.817013,288.879639 58.728264,288.897766 
	C66.861626,289.059357 75.002411,289.095032 83.132240,288.861542 
	C84.108932,288.833527 85.033264,286.982117 86.661537,285.994812 
	C87.114647,286.007782 87.567749,286.020721 88.056297,286.856476 
	C89.458252,287.570984 90.838486,288.847046 92.265923,288.902222 
	C98.256546,289.133881 104.261536,289.030121 110.260681,288.979218 
	C111.784256,288.966278 113.305641,288.695801 114.828033,288.543640 
	C114.951660,288.083344 115.075279,287.623016 115.198898,287.162720 
	C114.144745,286.418091 113.090599,285.673431 111.993462,284.219208 
	C110.676025,283.130554 109.358589,282.041870 108.019905,280.025330 
M394.080994,283.236786 
	C393.077850,282.459290 392.074677,281.681793 391.028778,279.985809 
	C391.022156,260.965881 391.033844,241.945938 390.983154,222.926147 
	C390.977509,220.813644 391.948517,217.930832 388.038605,217.120651 
	C387.621765,216.473862 387.117737,215.223770 386.801025,215.269547 
	C380.776215,216.140533 374.645294,216.710526 368.822388,218.355377 
	C366.077423,219.130753 366.547760,221.732162 369.415100,222.881424 
	C373.342255,224.455460 374.295349,227.309311 374.228241,231.403427 
	C373.990906,245.872726 374.083252,260.348633 374.176910,274.821198 
	C374.197723,278.030823 374.124054,280.770264 370.159271,281.623352 
	C369.355957,281.796204 368.823853,283.229553 368.166687,284.081787 
	C369.106537,284.736389 370.046356,285.391022 371.047180,286.865784 
	C372.453644,287.577179 373.838531,288.847382 375.270264,288.902649 
	C381.258850,289.133667 387.265167,289.114655 393.256439,288.921356 
	C394.797821,288.871643 396.307922,287.852417 397.832397,287.278564 
	C396.631317,286.150909 395.430267,285.023254 394.080994,283.236786 
M363.104584,284.166626 
	C362.080566,283.097717 361.056549,282.028809 360.009308,280.030457 
	C360.006195,260.984497 360.021454,241.938507 359.974121,222.892670 
	C359.968872,220.780991 360.943207,217.871429 356.994751,217.152542 
	C355.763977,216.448807 354.446991,215.029205 353.317322,215.165176 
	C348.411041,215.755768 343.535645,216.693176 338.707245,217.766541 
	C337.704926,217.989349 336.163025,219.439819 336.260651,220.126953 
	C336.419983,221.248718 337.515961,222.694824 338.580841,223.147385 
	C342.208893,224.689316 343.183258,227.238602 343.135651,231.030121 
	C342.952179,245.652359 343.007935,260.278595 343.104218,274.902527 
	C343.124420,277.974976 342.958496,280.453613 339.239899,281.285980 
	C338.355927,281.483856 337.800262,283.148499 337.093597,284.138489 
	C338.050293,284.776459 339.006958,285.414398 340.027649,286.874664 
	C340.928406,287.579773 341.814056,288.872711 342.732269,288.896210 
	C349.524109,289.070343 356.323425,289.048401 363.117523,288.925934 
	C364.038544,288.909332 364.943298,287.990662 365.855560,287.489685 
	C364.967804,286.617340 364.080048,285.744995 363.104584,284.166626 
z"/>
<path fill="#FFF3C3" opacity="1.000000" stroke="none" 
	d="
M55.991779,286.038361 
	C55.024422,285.419800 54.057068,284.801208 53.089706,284.182648 
	C53.706192,283.311066 54.146629,282.170135 54.977741,281.626923 
	C56.466694,280.653717 58.190742,280.040253 60.429604,278.988373 
	C59.128464,275.404816 57.856819,271.902466 56.285820,267.753479 
	C55.718472,266.536652 55.464462,265.476349 55.180424,265.468201 
	C48.619156,265.280945 41.870144,264.308838 35.589821,265.597198 
	C33.364143,266.053802 32.264210,272.061890 30.680733,275.549347 
	C30.147388,276.723999 29.707977,277.941315 29.157598,279.308075 
	C30.903214,279.907593 32.424686,280.430145 33.946159,280.952698 
	C34.954716,281.738159 35.963272,282.523590 36.913208,284.050232 
	C35.364525,285.194611 33.883698,285.900116 32.382713,285.945984 
	C27.253126,286.102722 22.116457,286.027527 16.982487,286.040802 
	C16.011284,285.413910 15.040082,284.787048 14.068882,284.160156 
	C14.757032,283.152710 15.283208,281.461731 16.160801,281.253754 
	C20.416594,280.245270 21.675688,276.954437 23.051363,273.462921 
	C29.748640,256.464996 36.525158,239.498077 43.329163,222.542465 
	C45.199955,217.880417 49.743275,217.493958 53.665184,222.210571 
	C54.326622,224.435410 54.490055,226.111099 55.077847,227.621674 
	C61.415020,243.907547 67.789246,260.179291 74.259674,276.412476 
	C74.793175,277.750977 76.103539,278.779755 77.052933,279.952454 
	C78.994797,281.082275 80.936668,282.212128 82.842316,284.074707 
	C81.314621,285.204926 79.828705,285.920044 78.330727,285.946289 
	C70.886162,286.076691 63.438408,286.025574 55.991779,286.038361 
M41.968163,258.936981 
	C45.522816,258.936981 49.077473,258.936981 54.067448,258.936981 
	C51.408375,252.159317 49.219723,246.580704 47.015358,240.194183 
	C46.652767,238.108261 46.290180,236.022324 45.764004,232.995300 
	C42.605171,242.073074 39.824604,250.063782 36.871155,258.551331 
	C38.567169,258.692932 39.809761,258.796661 41.968163,258.936981 
z"/>
<path fill="#FFF3C3" opacity="1.000000" stroke="none" 
	d="
M126.969261,284.002289 
	C113.605576,276.106079 114.444000,250.797836 124.441521,242.698959 
	C132.272980,236.354767 154.714859,235.325134 159.855347,248.067749 
	C160.328888,250.745743 160.802902,252.675232 160.963440,254.630432 
	C161.619034,262.615143 161.216110,263.013367 153.177597,263.014435 
	C146.283981,263.015350 139.390366,263.014618 132.211502,263.014618 
	C131.902863,267.508026 131.605011,271.216034 135.012756,274.027130 
	C139.196228,279.211578 146.571045,280.720184 153.823639,278.199982 
	C155.330566,277.676331 157.216202,278.242462 158.822998,278.972809 
	C155.112015,281.770050 151.693375,284.360687 147.856903,285.929443 
	C141.232803,288.638092 134.581604,286.313416 128.001007,284.979889 
	C128.001007,284.979889 127.998718,284.999634 127.898666,284.772583 
	C127.522163,284.364471 127.245712,284.183380 126.969261,284.002289 
M144.701111,245.381668 
	C142.091125,241.847519 138.075974,242.018082 136.260101,244.783752 
	C133.910797,248.361847 133.393158,253.142593 132.086868,257.405518 
	C133.058945,257.606750 134.031036,257.807983 135.928772,258.030060 
	C137.072784,258.032043 138.216797,258.035553 139.360809,258.035828 
	C147.634399,258.037598 149.312454,255.209961 145.703308,247.337677 
	C145.499557,246.893250 145.239777,246.474487 144.701111,245.381668 
z"/>
<path fill="#FFF3C3" opacity="1.000000" stroke="none" 
	d="
M166.020874,286.033722 
	C162.440506,284.448273 164.036560,282.981628 165.884140,281.034943 
	C171.062408,275.578979 176.171616,270.040253 180.937988,264.230560 
	C181.592804,263.432404 180.629135,260.510681 179.589172,259.256897 
	C175.292557,254.076920 170.639343,249.194412 166.209778,244.121719 
	C165.189285,242.953079 164.535446,241.464279 163.037430,239.021286 
	C171.624237,239.021286 178.713501,238.958679 185.797958,239.114182 
	C186.539810,239.130463 187.253387,240.435532 187.808380,241.830902 
	C186.482849,243.288361 185.329010,244.057541 183.615280,245.199982 
	C184.949173,246.351395 185.933640,247.201202 186.918121,248.051010 
	C188.412384,250.374664 189.906662,252.698318 191.898575,255.795837 
	C194.139343,252.584137 196.115936,250.183777 197.520538,247.485626 
	C197.966995,246.628036 196.913620,244.970596 196.504898,243.692490 
	C196.129349,242.518051 195.697739,241.361542 195.290817,240.197144 
	C196.454376,239.797516 197.605804,239.101578 198.783737,239.053329 
	C202.443268,238.903442 206.124680,238.835709 209.771454,239.098709 
	C210.881332,239.178757 211.906509,240.433411 212.793762,241.843185 
	C205.055328,245.855988 201.687180,253.263977 196.779083,259.124390 
	C196.143997,259.882690 197.530548,262.334076 197.980667,264.001221 
	C203.610489,270.446960 209.240311,276.892670 214.834930,284.072235 
	C213.312683,285.204437 211.833344,285.909180 210.337189,285.946869 
	C204.563461,286.092255 198.784378,286.024597 193.007278,286.036316 
	C189.265747,284.674011 189.265747,284.674011 193.854553,278.981445 
	C192.123276,276.491669 190.350922,273.942841 188.257538,270.866852 
	C187.059280,268.007721 185.825912,267.351410 184.197357,269.684692 
	C182.323761,272.369049 180.500626,275.092468 178.758057,277.863403 
	C177.113358,280.478638 178.818741,280.958069 180.956024,281.062317 
	C180.997452,281.783752 181.038879,282.505219 180.985016,283.988373 
	C175.933441,285.177979 170.977158,285.605865 166.020874,286.033722 
z"/>
<path fill="#B3DDEC" opacity="1.000000" stroke="none" 
	d="
M360.032562,280.959869 
	C361.056549,282.028809 362.080566,283.097717 362.840393,284.839294 
	C355.038666,285.692078 347.501160,285.872223 339.963654,286.052368 
	C339.006958,285.414398 338.050293,284.776459 337.093597,284.138489 
	C337.800262,283.148499 338.355927,281.483856 339.239899,281.285980 
	C342.958496,280.453613 343.124420,277.974976 343.104218,274.902527 
	C343.007935,260.278595 342.952179,245.652359 343.135651,231.030121 
	C343.183258,227.238602 342.208893,224.689316 338.580841,223.147385 
	C337.515961,222.694824 336.419983,221.248718 336.260651,220.126953 
	C336.163025,219.439819 337.704926,217.989349 338.707245,217.766541 
	C343.535645,216.693176 348.411041,215.755768 353.317322,215.165176 
	C354.446991,215.029205 355.763977,216.448807 357.004944,218.030807 
	C357.010895,237.631271 357.025177,256.353485 356.980835,275.075592 
	C356.974762,277.641357 356.769592,280.158630 360.032562,280.959869 
z"/>
<path fill="#ABD5F0" opacity="1.000000" stroke="none" 
	d="
M370.986206,286.045624 
	C370.046356,285.391022 369.106537,284.736389 368.166687,284.081787 
	C368.823853,283.229553 369.355957,281.796204 370.159271,281.623352 
	C374.124054,280.770264 374.197723,278.030823 374.176910,274.821198 
	C374.083252,260.348633 373.990906,245.872726 374.228241,231.403427 
	C374.295349,227.309311 373.342255,224.455460 369.415100,222.881424 
	C366.547760,221.732162 366.077423,219.130753 368.822388,218.355377 
	C374.645294,216.710526 380.776215,216.140533 386.801025,215.269547 
	C387.117737,215.223770 387.621765,216.473862 388.038452,217.998093 
	C388.029510,237.842575 388.012146,256.809601 388.023254,275.776642 
	C388.024597,278.044067 387.487793,280.724884 391.071533,280.904297 
	C392.074677,281.681793 393.077850,282.459290 394.012756,283.971466 
	C392.493195,285.138794 391.050171,285.909485 389.589081,285.945435 
	C383.391022,286.097687 377.187653,286.031799 370.986206,286.045624 
z"/>
<path fill="#FFF3C3" opacity="1.000000" stroke="none" 
	d="
M85.076355,285.014008 
	C85.846054,283.817749 86.449326,281.754974 87.413231,281.569824 
	C92.564011,280.580505 92.034378,276.896545 92.017082,273.201355 
	C91.957970,260.571625 91.869820,247.939590 92.057426,235.312363 
	C92.129692,230.449020 91.999588,226.275055 87.294113,223.039246 
	C83.584320,220.488144 84.244072,218.363327 88.623238,217.337234 
	C92.952614,216.322815 97.373390,215.571457 101.796402,215.162384 
	C103.093735,215.042404 104.535416,216.483170 105.644135,217.913284 
	C105.258354,238.169342 105.084488,257.720886 105.150818,277.271637 
	C105.154984,278.502075 107.034241,279.726166 108.041153,280.953217 
	C109.358589,282.041870 110.676025,283.130554 111.724854,284.886169 
	C103.644455,285.713318 95.832657,285.873505 88.020859,286.033691 
	C87.567749,286.020721 87.114647,286.007782 86.224403,285.778900 
	C85.613167,285.298584 85.376198,285.115601 85.076355,285.014008 
z"/>
<path fill="#BEEDE2" opacity="1.000000" stroke="none" 
	d="
M296.923065,280.048401 
	C298.302460,281.430786 299.681854,282.813141 300.793213,284.862122 
	C292.328461,285.704803 284.131683,285.880859 275.934937,286.056946 
	C274.982635,285.419159 274.030334,284.781403 273.078033,284.143646 
	C273.856934,283.209930 274.515320,281.623688 275.435303,281.453766 
	C279.754608,280.655945 280.208130,277.933197 280.130768,274.200653 
	C279.928314,264.429474 280.078674,254.651031 280.376709,244.106323 
	C280.446594,238.571274 280.228149,233.805405 279.857483,228.682175 
	C279.804596,225.579132 279.903900,222.833450 280.003204,220.087753 
	C285.779968,220.060242 291.560791,219.910522 297.330292,220.101883 
	C298.578583,220.143265 299.786224,221.411133 300.829529,222.820145 
	C298.733856,225.880966 293.864563,224.561951 293.929840,229.602417 
	C294.132507,245.250732 293.941559,260.904114 294.130188,276.552765 
	C294.144379,277.729034 295.950134,278.883698 296.923065,280.048401 
z"/>
<path fill="#9AC0FC" opacity="1.000000" stroke="none" 
	d="
M451.981903,286.080078 
	C451.054718,285.409821 450.127533,284.739594 449.200317,284.069397 
	C449.846832,283.207672 450.343811,281.802460 451.165253,281.576416 
	C455.165924,280.475464 455.350067,277.643829 455.251526,274.243286 
	C455.068817,267.939362 454.923828,261.610199 455.292572,255.322586 
	C455.553558,250.873154 454.503815,247.482315 450.686096,245.004944 
	C447.646362,243.032425 449.027405,241.088852 451.465942,240.511063 
	C456.426392,239.335724 461.543396,238.165482 466.574554,238.250809 
	C468.735748,238.287460 470.843719,241.458649 473.039032,243.257462 
	C480.747345,237.153519 482.561676,236.704330 486.037048,241.002441 
	C486.496399,244.290573 486.827087,246.810867 487.241364,249.968338 
	C483.591034,249.968338 480.799072,249.958145 478.007141,249.970444 
	C472.049683,249.996704 469.137939,252.747208 469.047760,258.642792 
	C468.958771,264.462708 469.053589,270.285217 469.014404,276.106232 
	C469.000183,278.217896 468.915710,280.266846 471.944733,280.085846 
	C473.635925,281.456787 475.327087,282.827759 476.771149,284.872162 
	C468.343323,285.723755 460.162628,285.901917 451.981903,286.080078 
z"/>
<path fill="#A6CDF4" opacity="1.000000" stroke="none" 
	d="
M418.577332,274.847137 
	C423.935852,281.149506 430.605438,279.348907 437.234222,277.887054 
	C439.007294,277.496033 441.426880,275.050659 441.590851,279.767883 
	C437.871155,282.249451 434.655670,285.315979 431.055481,285.866547 
	C425.170044,286.766632 419.033997,286.028198 413.003693,285.981018 
	C413.003693,285.981018 412.998779,286.000885 412.847351,285.739807 
	C412.127167,285.331696 411.558411,285.184692 410.989685,285.037720 
	C398.854187,276.709961 397.079285,262.382111 401.500397,251.106781 
	C405.119232,241.877594 411.631104,238.015686 423.561066,238.433014 
	C423.999420,240.255905 423.998444,241.632507 423.624146,243.023926 
	C417.633362,244.577850 413.929108,250.127136 415.118896,255.702118 
	C415.317932,256.634766 416.995300,257.251892 418.408630,258.043335 
	C420.221863,258.165771 421.616058,258.259705 423.017853,258.717896 
	C423.172241,260.271454 423.319000,261.460785 423.483215,262.791626 
	C422.404633,262.886780 421.763733,262.978790 421.120911,262.994629 
	C413.244965,263.189148 412.243469,264.985352 416.104248,272.133453 
	C416.475983,272.821716 417.168274,273.336884 417.711761,273.932404 
	C417.711761,273.932404 417.902649,274.092773 418.045929,274.301025 
	C418.290497,274.654144 418.419891,274.766754 418.577332,274.847137 
z"/>
<path fill="#C9F5DE" opacity="1.000000" stroke="none" 
	d="
M256.891174,286.079651 
	C255.635162,285.019684 253.750595,284.207489 253.220016,282.861572 
	C247.706894,268.876129 242.411652,254.804840 237.414124,240.291992 
	C238.181549,238.348312 238.900513,236.878998 238.943634,235.390121 
	C239.091461,230.286331 239.002258,225.175674 239.003433,220.067627 
	C244.456833,219.548462 246.091934,223.776917 247.566681,227.522400 
	C252.125275,239.100021 256.352234,250.808243 260.850708,263.198853 
	C260.645081,264.984833 260.208099,266.017670 259.964203,267.094238 
	C259.040558,271.170715 257.067444,275.361908 260.977631,279.383606 
	C259.583527,281.864960 258.237366,283.972321 256.891174,286.079651 
z"/>
<path fill="#B9E5E7" opacity="1.000000" stroke="none" 
	d="
M328.843231,280.111542 
	C329.918457,281.476868 330.993713,282.842163 331.802155,284.867188 
	C324.009094,285.701172 316.482788,285.875488 308.956512,286.049805 
	C307.995361,285.423523 307.034180,284.797272 306.072998,284.171021 
	C306.684479,283.296295 307.137970,281.865967 307.933838,281.639587 
	C312.183289,280.431091 312.122528,277.290619 312.057068,273.824249 
	C311.922607,266.699615 311.874329,259.566620 312.075684,252.445145 
	C312.177887,248.830795 310.866882,246.559219 307.700653,244.863998 
	C307.055481,244.518555 307.207550,241.085220 307.374573,241.052917 
	C313.150085,239.936035 318.967346,239.025955 324.798889,238.235489 
	C325.092041,238.195755 325.565399,239.485107 325.976562,241.035522 
	C325.995667,253.133316 325.987091,264.351227 325.995819,275.569122 
	C325.997437,277.655975 325.445953,280.133789 328.843231,280.111542 
z"/>
<path fill="#CCFBDB" opacity="1.000000" stroke="none" 
	d="
M238.534973,220.042999 
	C239.002258,225.175674 239.091461,230.286331 238.943634,235.390121 
	C238.900513,236.878998 238.181549,238.348312 237.372650,239.917267 
	C236.487778,239.122986 236.002640,238.238068 235.263397,236.773453 
	C234.443298,234.004089 233.877304,231.814407 233.311325,229.624725 
	C232.878387,229.729065 232.445450,229.833405 232.012512,229.937729 
	C232.012512,245.375397 231.942810,260.813965 232.142563,276.249023 
	C232.158844,277.507263 234.015381,278.741669 235.016815,279.987122 
	C237.004333,281.403198 238.991852,282.819275 240.622559,284.773926 
	C233.503036,285.552979 226.740295,285.793488 219.977570,286.033966 
	C219.238205,286.019958 218.498825,286.005951 217.386078,285.752136 
	C217.012711,285.512329 217.008514,285.031311 217.008514,285.031311 
	C218.446426,283.476837 219.610840,281.362244 221.384842,280.496155 
	C224.210037,279.116852 225.127823,277.398926 225.091782,274.317749 
	C224.934021,260.827667 224.955536,247.334137 225.075455,233.843307 
	C225.102921,230.752380 224.722794,228.366409 221.449173,227.042450 
	C220.175995,226.527527 219.178574,225.147858 218.264511,223.996216 
	C217.711929,223.300018 217.041458,221.901260 217.340851,221.496719 
	C217.900909,220.739929 219.120102,220.090515 220.078735,220.071121 
	C226.072556,219.949783 232.070160,220.014954 238.534973,220.042999 
z"/>
<path fill="#A3C9F6" opacity="1.000000" stroke="none" 
	d="
M423.997467,243.009109 
	C423.998444,241.632507 423.999420,240.255905 424.001862,238.468048 
	C437.563965,236.236191 447.676361,249.929382 446.854828,260.972595 
	C446.602325,264.366852 445.561035,266.102203 441.779236,265.940094 
	C435.992798,265.692078 430.187866,265.874786 424.390808,265.875336 
	C416.812714,265.876007 416.812714,265.876282 417.767273,273.528809 
	C417.168274,273.336884 416.475983,272.821716 416.104248,272.133453 
	C412.243469,264.985352 413.244965,263.189148 421.120911,262.994629 
	C421.763733,262.978790 422.404633,262.886780 423.483215,262.791626 
	C423.319000,261.460785 423.172241,260.271454 423.455383,258.626831 
	C425.768921,258.055969 427.652557,257.940460 430.738678,257.751221 
	C429.696381,253.383301 428.821564,249.717133 427.825195,245.743286 
	C426.468262,244.626770 425.232880,243.817947 423.997467,243.009109 
z"/>
<path fill="#C3F1E0" opacity="1.000000" stroke="none" 
	d="
M261.025574,279.009644 
	C257.067444,275.361908 259.040558,271.170715 259.964203,267.094238 
	C260.208099,266.017670 260.645081,264.984833 260.988159,263.542877 
	C266.043762,250.075912 271.061127,236.980728 276.225922,223.943954 
	C276.807831,222.475174 278.222626,221.336365 279.627197,220.066147 
	C279.903900,222.833450 279.804596,225.579132 279.813721,229.057297 
	C273.623322,246.196396 267.324432,262.603027 261.025574,279.009644 
z"/>
<path fill="#E0E5E4" opacity="1.000000" stroke="none" 
	d="
M260.977631,279.383606 
	C267.324432,262.603027 273.623322,246.196396 279.965942,229.414642 
	C280.228149,233.805405 280.446594,238.571274 280.394653,243.633728 
	C277.107025,251.012863 274.003265,258.060120 271.097351,265.188049 
	C268.296875,272.057281 265.825043,279.061646 262.968353,285.906281 
	C261.254303,290.013031 259.593872,290.146515 256.932007,286.459808 
	C258.237366,283.972321 259.583527,281.864960 260.977631,279.383606 
z"/>
<path fill="#E3E3E3" opacity="1.000000" stroke="none" 
	d="
M296.946625,279.575378 
	C295.950134,278.883698 294.144379,277.729034 294.130188,276.552765 
	C293.941559,260.904114 294.132507,245.250732 293.929840,229.602417 
	C293.864563,224.561951 298.733856,225.880966 300.864868,223.235840 
	C302.032440,223.596756 302.981628,224.248047 303.930817,224.899323 
	C303.103760,226.004913 302.403442,227.927094 301.428253,228.078461 
	C296.514832,228.841064 296.933929,232.216934 296.953125,235.763565 
	C297.031372,250.209457 296.976196,264.656036 296.946625,279.575378 
z"/>
<path fill="#B9E5E7" opacity="1.000000" stroke="none" 
	d="
M314.950836,230.044830 
	C311.488953,228.566513 309.262726,225.729507 310.694305,222.318726 
	C311.732117,219.846146 314.498962,217.207336 317.031860,216.457962 
	C321.086823,215.258316 324.799774,217.077850 326.868347,222.000763 
	C325.178802,229.325928 324.129181,229.966522 314.950836,230.044830 
z"/>
<path fill="#E5E4DC" opacity="1.000000" stroke="none" 
	d="
M108.030533,280.489258 
	C107.034241,279.726166 105.154984,278.502075 105.150818,277.271637 
	C105.084488,257.720886 105.258354,238.169342 105.657501,218.315430 
	C106.629021,219.601120 107.910019,221.184982 107.921867,222.778290 
	C108.063683,241.859818 108.017174,260.942749 108.030533,280.489258 
z"/>
<path fill="#DDE0E2" opacity="1.000000" stroke="none" 
	d="
M391.050171,280.445068 
	C387.487793,280.724884 388.024597,278.044067 388.023254,275.776642 
	C388.012146,256.809601 388.029510,237.842575 388.075989,218.400497 
	C391.948517,217.930832 390.977509,220.813644 390.983154,222.926147 
	C391.033844,241.945938 391.022156,260.965881 391.050171,280.445068 
z"/>
<path fill="#E1E1E1" opacity="1.000000" stroke="none" 
	d="
M360.020935,280.495178 
	C356.769592,280.158630 356.974762,277.641357 356.980835,275.075592 
	C357.025177,256.353485 357.010895,237.631271 357.035492,218.437286 
	C360.943207,217.871429 359.968872,220.780991 359.974121,222.892670 
	C360.021454,241.938507 360.006195,260.984497 360.020935,280.495178 
z"/>
<path fill="#E3E3E1" opacity="1.000000" stroke="none" 
	d="
M135.013458,273.577087 
	C131.605011,271.216034 131.902863,267.508026 132.211502,263.014618 
	C139.390366,263.014618 146.283981,263.015350 153.177597,263.014435 
	C161.216110,263.013367 161.619034,262.615143 160.963440,254.630432 
	C160.802902,252.675232 160.328888,250.745743 160.000351,248.370789 
	C165.146790,252.637207 164.190918,258.802460 163.544998,264.647308 
	C163.439316,265.603546 160.081055,266.790710 158.191345,266.855377 
	C150.743744,267.110199 143.282272,266.959808 135.014145,266.959808 
	C135.014145,269.307648 135.014145,271.217346 135.013458,273.577087 
z"/>
<path fill="#DDE0E2" opacity="1.000000" stroke="none" 
	d="
M471.967224,279.609528 
	C468.915710,280.266846 469.000183,278.217896 469.014404,276.106232 
	C469.053589,270.285217 468.958771,264.462708 469.047760,258.642792 
	C469.137939,252.747208 472.049683,249.996704 478.007141,249.970444 
	C480.799072,249.958145 483.591034,249.968338 487.241364,249.968338 
	C486.827087,246.810867 486.496399,244.290573 486.146729,241.360229 
	C491.006378,243.440262 490.184967,248.079010 491.121277,252.981750 
	C487.662689,252.981750 484.901306,252.974655 482.140015,252.983124 
	C474.763397,253.005753 472.085205,255.697144 472.016998,263.243286 
	C471.969147,268.539581 471.996124,273.836548 471.967224,279.609528 
z"/>
<path fill="#DEE4E0" opacity="1.000000" stroke="none" 
	d="
M235.010864,279.519775 
	C234.015381,278.741669 232.158844,277.507263 232.142563,276.249023 
	C231.942810,260.813965 232.012512,245.375397 232.012512,229.937729 
	C232.445450,229.833405 232.878387,229.729065 233.311325,229.624725 
	C233.877304,231.814407 234.443298,234.004089 235.012238,236.588043 
	C235.011780,251.005661 235.008347,265.029022 235.010864,279.519775 
z"/>
<path fill="#E3E3E1" opacity="1.000000" stroke="none" 
	d="
M77.031219,279.569611 
	C76.103539,278.779755 74.793175,277.750977 74.259674,276.412476 
	C67.789246,260.179291 61.415020,243.907547 55.077847,227.621674 
	C54.490055,226.111099 54.326622,224.435410 53.949043,222.439392 
	C55.609749,225.345078 57.575771,228.535294 58.915970,231.969711 
	C65.043121,247.671280 70.994781,263.441315 77.031219,279.569611 
z"/>
<path fill="#E3E3E1" opacity="1.000000" stroke="none" 
	d="
M33.950542,280.553528 
	C32.424686,280.430145 30.903214,279.907593 29.157598,279.308075 
	C29.707977,277.941315 30.147388,276.723999 30.680733,275.549347 
	C32.264210,272.061890 33.364143,266.053802 35.589821,265.597198 
	C41.870144,264.308838 48.619156,265.280945 55.180424,265.468201 
	C55.464462,265.476349 55.718472,266.536652 56.017521,267.515442 
	C51.777317,267.944946 47.479225,268.272949 43.242161,267.902679 
	C38.768425,267.511658 36.475170,269.272888 35.651398,273.532990 
	C35.219608,275.765961 34.528782,277.948822 33.950542,280.553528 
z"/>
<path fill="#E3E3E1" opacity="1.000000" stroke="none" 
	d="
M128.156952,285.293427 
	C134.581604,286.313416 141.232803,288.638092 147.856903,285.929443 
	C151.693375,284.360687 155.112015,281.770050 158.884674,279.345856 
	C162.363022,280.251740 162.420135,281.687744 160.174683,284.455200 
	C154.641510,291.274719 135.099380,292.384094 128.156952,285.293427 
z"/>
<path fill="#E3E3E3" opacity="1.000000" stroke="none" 
	d="
M328.894470,279.633850 
	C325.445953,280.133789 325.997437,277.655975 325.995819,275.569122 
	C325.987091,264.351227 325.995667,253.133316 326.009674,241.443878 
	C329.491943,240.761902 328.982422,243.253906 328.981567,245.366318 
	C328.977051,256.629608 328.959076,267.892883 328.894470,279.633850 
z"/>
<path fill="#E3E3E1" opacity="1.000000" stroke="none" 
	d="
M198.127731,263.698334 
	C197.530548,262.334076 196.143997,259.882690 196.779083,259.124390 
	C201.687180,253.263977 205.055328,245.855988 212.819946,242.258713 
	C213.983185,242.599564 215.206070,243.041733 215.790466,243.912430 
	C216.073074,244.333481 215.370773,246.088715 214.749817,246.340454 
	C207.385681,249.325790 204.482925,256.593048 199.567184,261.908752 
	C199.121567,262.390625 198.704895,262.899231 198.127731,263.698334 
z"/>
<path fill="#E2E2E2" opacity="1.000000" stroke="none" 
	d="
M413.157257,286.305084 
	C419.033997,286.028198 425.170044,286.766632 431.055481,285.866547 
	C434.655670,285.315979 437.871155,282.249451 441.545807,280.162048 
	C445.038757,279.932465 446.013641,281.145752 443.694611,283.689880 
	C442.391113,285.119873 440.848145,286.570923 439.114227,287.328857 
	C430.451843,291.115570 421.772369,291.917236 413.157257,286.305084 
z"/>
<path fill="#E2E2E2" opacity="1.000000" stroke="none" 
	d="
M84.804512,284.911499 
	C85.376198,285.115601 85.613167,285.298584 85.884567,285.769409 
	C85.033264,286.982117 84.108932,288.833527 83.132240,288.861542 
	C75.002411,289.095032 66.861626,289.059357 58.728264,288.897766 
	C57.817013,288.879639 56.931374,287.572540 56.012817,286.450775 
	C63.438408,286.025574 70.886162,286.076691 78.330727,285.946289 
	C79.828705,285.920044 81.314621,285.204926 82.898849,284.413513 
	C83.505287,284.282745 84.018974,284.545837 84.804512,284.911499 
z"/>
<path fill="#E2E2E2" opacity="1.000000" stroke="none" 
	d="
M452.013794,286.487457 
	C460.162628,285.901917 468.343323,285.723755 476.827515,285.233673 
	C478.032440,285.769470 478.933929,286.617188 479.835388,287.464905 
	C478.930328,287.974457 478.032104,288.911377 477.119110,288.926056 
	C469.669830,289.045593 462.216156,289.065369 454.768616,288.899872 
	C453.846558,288.879364 452.952637,287.594025 452.013794,286.487457 
z"/>
<path fill="#E1E1E1" opacity="1.000000" stroke="none" 
	d="
M275.967224,286.469330 
	C284.131683,285.880859 292.328461,285.704803 300.826599,285.213013 
	C302.034393,285.754272 302.940796,286.611237 303.847198,287.468201 
	C302.939148,287.976105 302.037903,288.910065 301.122009,288.924652 
	C293.655090,289.043701 286.183838,289.063568 278.718719,288.897247 
	C277.797821,288.876709 276.905212,287.584595 275.967224,286.469330 
z"/>
<path fill="#E1E1E1" opacity="1.000000" stroke="none" 
	d="
M371.016693,286.455688 
	C377.187653,286.031799 383.391022,286.097687 389.589081,285.945435 
	C391.050171,285.909485 392.493195,285.138794 394.086884,284.300873 
	C395.430267,285.023254 396.631317,286.150909 397.832397,287.278564 
	C396.307922,287.852417 394.797821,288.871643 393.256439,288.921356 
	C387.265167,289.114655 381.258850,289.133667 375.270264,288.902649 
	C373.838531,288.847382 372.453644,287.577179 371.016693,286.455688 
z"/>
<path fill="#E1E1E1" opacity="1.000000" stroke="none" 
	d="
M88.038574,286.445068 
	C95.832657,285.873505 103.644455,285.713318 111.746353,285.240967 
	C113.090599,285.673431 114.144745,286.418091 115.198898,287.162720 
	C115.075279,287.623016 114.951660,288.083344 114.828033,288.543640 
	C113.305641,288.695801 111.784256,288.966278 110.260681,288.979218 
	C104.261536,289.030121 98.256546,289.133881 92.265923,288.902222 
	C90.838486,288.847046 89.458252,287.570984 88.038574,286.445068 
z"/>
<path fill="#E1E1E1" opacity="1.000000" stroke="none" 
	d="
M339.995667,286.463531 
	C347.501160,285.872223 355.038666,285.692078 362.884216,285.192291 
	C364.080048,285.744995 364.967804,286.617340 365.855560,287.489685 
	C364.943298,287.990662 364.038544,288.909332 363.117523,288.925934 
	C356.323425,289.048401 349.524109,289.070343 342.732269,288.896210 
	C341.814056,288.872711 340.928406,287.579773 339.995667,286.463531 
z"/>
<path fill="#E1E1E1" opacity="1.000000" stroke="none" 
	d="
M308.987549,286.462036 
	C316.482788,285.875488 324.009094,285.701172 331.837982,285.210480 
	C333.045105,285.750397 333.949646,286.606689 334.854187,287.462982 
	C333.948120,287.972412 333.049805,288.906677 332.134705,288.923431 
	C325.332367,289.048126 318.524719,289.070190 311.724518,288.896606 
	C310.805939,288.873169 309.919769,287.579681 308.987549,286.462036 
z"/>
<path fill="#E1E1E1" opacity="1.000000" stroke="none" 
	d="
M216.747437,284.919189 
	C217.008514,285.031311 217.012711,285.512329 217.016327,285.752747 
	C216.234451,286.988678 215.479492,288.817535 214.658615,288.847595 
	C208.192596,289.084534 201.712265,289.046509 195.241623,288.883759 
	C194.493164,288.864929 193.776932,287.565399 193.026520,286.447968 
	C198.784378,286.024597 204.563461,286.092255 210.337189,285.946869 
	C211.833344,285.909180 213.312683,285.204437 214.891159,284.412476 
	C215.483841,284.281647 215.985107,284.544373 216.747437,284.919189 
z"/>
<path fill="#E2E2E2" opacity="1.000000" stroke="none" 
	d="
M315.028503,230.391113 
	C324.129181,229.966522 325.178802,229.325928 327.022095,222.310516 
	C330.785004,223.521683 330.622742,226.542068 329.173218,229.334808 
	C327.221283,233.095535 323.687012,234.573761 319.572815,233.567520 
	C317.950226,233.170685 316.587311,231.712357 315.028503,230.391113 
z"/>
<path fill="#E1E1E1" opacity="1.000000" stroke="none" 
	d="
M17.004513,286.454010 
	C22.116457,286.027527 27.253126,286.102722 32.382713,285.945984 
	C33.883698,285.900116 35.364525,285.194611 36.961128,284.393738 
	C37.997349,285.164581 38.927025,286.333038 39.856705,287.501526 
	C38.611572,288.000916 37.378929,288.890900 36.119110,288.931244 
	C30.986338,289.095398 25.839033,289.135651 20.711658,288.901917 
	C19.454979,288.844635 18.253429,287.577911 17.004513,286.454010 
z"/>
<path fill="#E1E1E1" opacity="1.000000" stroke="none" 
	d="
M220.002594,286.447388 
	C226.740295,285.793488 233.503036,285.552979 240.649475,285.132751 
	C241.647873,285.731995 242.531143,286.444122 242.749710,287.321777 
	C242.841629,287.690826 241.536438,288.884430 240.852951,288.895782 
	C234.466324,289.001953 228.075516,288.984467 221.690353,288.825043 
	C221.120102,288.810791 220.581116,287.545227 220.002594,286.447388 
z"/>
<path fill="#E2E2E2" opacity="1.000000" stroke="none" 
	d="
M166.038757,286.445007 
	C170.977158,285.605865 175.933441,285.177979 181.008911,284.348877 
	C182.047562,285.082336 182.967026,286.216980 183.886505,287.351593 
	C182.675919,287.901276 181.490036,288.847748 180.250031,288.924927 
	C176.765381,289.141907 173.242859,289.189636 169.768417,288.902679 
	C168.483597,288.796539 167.291214,287.571167 166.038757,286.445007 
z"/>
<path fill="#E3E3E1" opacity="1.000000" stroke="none" 
	d="
M181.232056,280.862244 
	C178.818741,280.958069 177.113358,280.478638 178.758057,277.863403 
	C180.500626,275.092468 182.323761,272.369049 184.197357,269.684692 
	C185.825912,267.351410 187.059280,268.007721 187.983063,270.680542 
	C185.855774,274.234955 183.681931,277.448578 181.232056,280.862244 
z"/>
<path fill="#E3E3E1" opacity="1.000000" stroke="none" 
	d="
M187.246246,247.893250 
	C185.933640,247.201202 184.949173,246.351395 183.615280,245.199982 
	C185.329010,244.057541 186.482849,243.288361 187.834259,242.246948 
	C188.990921,242.612289 189.950027,243.249847 190.909134,243.887421 
	C189.797562,245.170105 188.685974,246.452789 187.246246,247.893250 
z"/>
<path fill="#E2E2E2" opacity="1.000000" stroke="none" 
	d="
M411.164337,285.278015 
	C411.558411,285.184692 412.127167,285.331696 412.856079,285.734924 
	C412.457153,285.833527 411.898071,285.675903 411.164337,285.278015 
z"/>
<path fill="#E3E3E1" opacity="1.000000" stroke="none" 
	d="
M127.084396,284.224854 
	C127.245712,284.183380 127.522163,284.364471 127.908524,284.771790 
	C127.745453,284.814484 127.472488,284.630951 127.084396,284.224854 
z"/>
<path fill="#A3C9F6" opacity="1.000000" stroke="none" 
	d="
M418.575012,274.694397 
	C418.419891,274.766754 418.290497,274.654144 418.119934,274.401367 
	C418.282898,274.254517 418.456909,274.337250 418.575012,274.694397 
z"/>
<path fill="#FFFFFF" opacity="1.000000" stroke="none" 
	d="
M47.031075,241.002106 
	C49.219723,246.580704 51.408375,252.159317 54.067448,258.936981 
	C49.077473,258.936981 45.522816,258.936981 41.542252,258.557892 
	C43.087921,252.453232 45.059498,246.727676 47.031075,241.002106 
z"/>
<path fill="#E3E3E1" opacity="1.000000" stroke="none" 
	d="
M47.023216,240.598145 
	C45.059498,246.727676 43.087921,252.453232 41.084351,258.539612 
	C39.809761,258.796661 38.567169,258.692932 36.871155,258.551331 
	C39.824604,250.063782 42.605171,242.073074 45.764004,232.995300 
	C46.290180,236.022324 46.652767,238.108261 47.023216,240.598145 
z"/>
<path fill="#FFFFFF" opacity="1.000000" stroke="none" 
	d="
M145.006073,246.043793 
	C145.239777,246.474487 145.499557,246.893250 145.703308,247.337677 
	C149.312454,255.209961 147.634399,258.037598 139.360809,258.035828 
	C138.216797,258.035553 137.072784,258.032043 135.466888,257.619110 
	C136.153091,248.812729 138.311234,246.403564 145.006073,246.043793 
z"/>
<path fill="#E3E3E1" opacity="1.000000" stroke="none" 
	d="
M144.853592,245.712738 
	C138.311234,246.403564 136.153091,248.812729 135.004059,257.608704 
	C134.031036,257.807983 133.058945,257.606750 132.086868,257.405518 
	C133.393158,253.142593 133.910797,248.361847 136.260101,244.783752 
	C138.075974,242.018082 142.091125,241.847519 144.853592,245.712738 
z"/>
<path fill="#FFFFFF" opacity="1.000000" stroke="none" 
	d="
M427.946716,246.050964 
	C428.821564,249.717133 429.696381,253.383301 430.738678,257.751221 
	C427.652557,257.940460 425.768921,258.055969 423.447754,258.262573 
	C421.616058,258.259705 420.221863,258.165771 418.413574,257.642212 
	C419.145233,248.831100 421.302094,246.410934 427.946716,246.050964 
z"/>
<path fill="#E1E1E1" opacity="1.000000" stroke="none" 
	d="
M427.825195,245.743286 
	C421.302094,246.410934 419.145233,248.831100 417.994507,257.613708 
	C416.995300,257.251892 415.317932,256.634766 415.118896,255.702118 
	C413.929108,250.127136 417.633362,244.577850 423.624146,243.023926 
	C425.232880,243.817947 426.468262,244.626770 427.825195,245.743286 
z"/>
</svg>